<svg width="124" height="20" viewBox="0 0 124 20" fill="none" xmlns="http://www.w3.org/2000/svg">
<path d="M8.53285 19.1436L11.5579 0.704944H15.1592L12.1341 19.1436H8.53285ZM0.357919 14.93L0.970138 11.3288H15.8075L15.1952 14.93H0.357919ZM2.05053 19.1436L5.07561 0.704944H8.6769L5.65182 19.1436H2.05053ZM1.40229 8.51975L2.01451 4.91845H16.8518L16.2396 8.51975H1.40229ZM23.2306 0.704944L27.012 13.7056H27.156L30.9374 0.704944H36.5914L30.5052 19.1436H23.6628L17.5766 0.704944H23.2306ZM40.1364 19.1436H34.7345L40.8207 0.704944H47.6631L53.7493 19.1436H48.3474L44.3139 5.78277H44.1699L40.1364 19.1436ZM39.1281 11.8689H49.2837V15.6143H39.1281V11.8689ZM71.4789 0.704944V19.1436H67.3014L60.639 9.45608H60.531V19.1436H55.5252V0.704944H59.7747L66.3291 10.3564H66.4731V0.704944H71.4789ZM73.8468 19.1436V0.704944H78.8526V15.1101H86.3072V19.1436H73.8468ZM93.3365 0.704944V19.1436H88.3307V0.704944H93.3365ZM95.7088 19.1436V0.704944H108.673V4.73839H100.715V7.90753H107.881V11.941H100.715V19.1436H95.7088ZM110.515 19.1436V0.704944H123.803V4.73839H115.52V7.90753H123.119V11.941H115.52V15.1101H123.767V19.1436H110.515Z" fill="black"/>
</svg>
